<svg preserveAspectRatio="none" width="100%" height="100%" overflow="visible" style="display: block;" viewBox="0 0 25 25" fill="none" xmlns="http://www.w3.org/2000/svg">
<g id="Container">
<path id="Icon" d="M12.5 25C10.7708 25 9.14583 24.6719 7.625 24.0156C6.10417 23.3594 4.78125 22.4688 3.65625 21.3438C2.53125 20.2188 1.64062 18.8958 0.984375 17.375C0.328125 15.8542 0 14.2292 0 12.5C0 10.7708 0.328125 9.14583 0.984375 7.625C1.64062 6.10417 2.53125 4.78125 3.65625 3.65625C4.78125 2.53125 6.10417 1.64062 7.625 0.984375C9.14583 0.328125 10.7708 0 12.5 0C14.2292 0 15.8542 0.328125 17.375 0.984375C18.8958 1.64062 20.2188 2.53125 21.3438 3.65625C22.4688 4.78125 23.3594 6.10417 24.0156 7.625C24.6719 9.14583 25 10.7708 25 12.5C25 14.2292 24.6719 15.8542 24.0156 17.375C23.3594 18.8958 22.4688 20.2188 21.3438 21.3438C20.2188 22.4688 18.8958 23.3594 17.375 24.0156C15.8542 24.6719 14.2292 25 12.5 25V25M12.5 22.5C13.6667 22.5 14.7656 22.3177 15.7969 21.9531C16.8281 21.5885 17.7708 21.0729 18.625 20.4062L16.8438 18.625C16.2396 19.0625 15.5677 19.401 14.8281 19.6406C14.0885 19.8802 13.3125 20 12.5 20C10.4167 20 8.64583 19.2708 7.1875 17.8125C5.72917 16.3542 5 14.5833 5 12.5C5 10.4167 5.72917 8.64583 7.1875 7.1875C8.64583 5.72917 10.4167 5 12.5 5C14.5833 5 16.3542 5.72917 17.8125 7.1875C19.2708 8.64583 20 10.4167 20 12.5C20 13.3125 19.875 14.0938 19.625 14.8438C19.375 15.5938 19.0312 16.2708 18.5938 16.875L20.375 18.6562C21.0417 17.8021 21.5625 16.8542 21.9375 15.8125C22.3125 14.7708 22.5 13.6667 22.5 12.5C22.5 9.70833 21.5312 7.34375 19.5938 5.40625C17.6562 3.46875 15.2917 2.5 12.5 2.5C9.70833 2.5 7.34375 3.46875 5.40625 5.40625C3.46875 7.34375 2.5 9.70833 2.5 12.5C2.5 15.2917 3.46875 17.6562 5.40625 19.5938C7.34375 21.5312 9.70833 22.5 12.5 22.5V22.5M12.5 17.5C12.9583 17.5 13.401 17.4427 13.8281 17.3281C14.2552 17.2135 14.6562 17.0417 15.0312 16.8125L13.125 14.9062C13.0208 14.9479 12.9167 14.974 12.8125 14.9844C12.7083 14.9948 12.6042 15 12.5 15C11.8125 15 11.224 14.7552 10.7344 14.2656C10.2448 13.776 10 13.1875 10 12.5C10 11.8125 10.2448 11.224 10.7344 10.7344C11.224 10.2448 11.8125 10 12.5 10C13.1875 10 13.776 10.2448 14.2656 10.7344C14.7552 11.224 15 11.8125 15 12.5C15 12.625 14.9948 12.7448 14.9844 12.8594C14.974 12.974 14.9479 13.0833 14.9062 13.1875L16.7812 15.0625C17.0104 14.6875 17.1875 14.2865 17.3125 13.8594C17.4375 13.4323 17.5 12.9792 17.5 12.5C17.5 11.125 17.0104 9.94792 16.0312 8.96875C15.0521 7.98958 13.875 7.5 12.5 7.5C11.125 7.5 9.94792 7.98958 8.96875 8.96875C7.98958 9.94792 7.5 11.125 7.5 12.5C7.5 13.875 7.98958 15.0521 8.96875 16.0312C9.94792 17.0104 11.125 17.5 12.5 17.5V17.5" fill="var(--fill-0, #5E5E5E)"/>
</g>
</svg>
