<svg preserveAspectRatio="none" width="100%" height="100%" overflow="visible" style="display: block;" viewBox="0 0 20.0515 20" fill="none" xmlns="http://www.w3.org/2000/svg">
<g id="Container">
<path id="Icon" d="M8.77573 20C8.42157 20 8.12469 19.8802 7.88511 19.6406C7.64553 19.401 7.52574 19.1042 7.52574 18.75V11.25L0.275735 2C-0.0367647 1.58333 -0.0836397 1.14583 0.13511 0.6875C0.35386 0.229167 0.734069 0 1.27574 0H18.7757C19.3174 0 19.6976 0.229167 19.9164 0.6875C20.1351 1.14583 20.0882 1.58333 19.7757 2L12.5257 11.25V18.75C12.5257 19.1042 12.4059 19.401 12.1664 19.6406C11.9268 19.8802 11.6299 20 11.2757 20H8.77573V20M10.0257 10.375L16.2132 2.5H3.83824L10.0257 10.375V10.375M10.0257 10.375V10.375V10.375V10.375V10.375" fill="var(--fill-0, #5E5E5E)"/>
</g>
</svg>
